<?xml version="1.0" standalone="no"?>
<!DOCTYPE svg PUBLIC "-//W3C//DTD SVG 20010904//EN"
 "http://www.w3.org/TR/2001/REC-SVG-20010904/DTD/svg10.dtd">
<svg version="1.0" xmlns="http://www.w3.org/2000/svg"
 width="546.000000pt" height="480.000000pt" viewBox="0 0 546.000000 480.000000"
 preserveAspectRatio="xMidYMid meet">

<g transform="translate(0.000000,480.000000) scale(0.100000,-0.100000)"
fill="#000000" stroke="none">
<path d="M0 2400 l0 -2400 2730 0 2730 0 0 2400 0 2400 -2730 0 -2730 0 0
-2400z m1695 2256 c165 -44 297 -176 340 -341 41 -160 -1 -323 -116 -449 -46
-51 -158 -126 -187 -126 -8 0 -12 26 -12 79 l0 79 39 29 c51 38 87 81 114 140
30 66 30 188 0 255 -28 62 -96 134 -158 166 -44 24 -62 27 -145 27 -108 0
-148 -15 -226 -87 -127 -117 -134 -320 -14 -451 66 -73 123 -99 229 -106 l86
-6 3 -742 2 -743 684 0 683 0 6 113 c6 129 24 202 72 304 106 225 341 403 578
438 l47 7 0 63 0 63 -47 -6 c-27 -2 -85 -15 -131 -28 -245 -71 -450 -244 -561
-477 -57 -120 -80 -199 -89 -310 l-7 -82 -70 0 -70 0 -3 59 c-5 98 37 270 94
393 65 136 193 294 314 387 118 91 285 170 415 196 96 20 95 17 40 66 -27 24
-59 44 -70 44 -47 0 -252 -80 -338 -132 -335 -203 -549 -544 -575 -917 -4 -53
-10 -95 -14 -93 -5 1 -38 2 -75 2 l-66 0 6 108 c15 237 115 497 272 702 139
181 401 371 603 435 28 10 52 20 52 24 0 3 -19 21 -41 40 -33 27 -46 32 -72
27 -45 -9 -197 -88 -297 -154 -107 -71 -310 -271 -377 -372 -151 -227 -234
-461 -251 -713 -4 -53 -10 -97 -14 -97 -5 0 -38 0 -75 0 l-66 0 6 118 c29 535
385 1061 882 1303 39 19 72 36 75 37 3 2 -15 22 -39 43 l-44 39 -96 -51 c-53
-28 -130 -75 -172 -105 -73 -51 -248 -202 -279 -241 -8 -10 -36 -43 -61 -73
-76 -92 -114 -150 -198 -303 -98 -178 -167 -429 -187 -679 l-6 -87 -157 -3
c-86 -2 -159 -2 -163 0 -5 2 -8 243 -8 537 l0 534 526 451 c475 408 527 450
544 438 10 -7 44 -35 76 -63 57 -49 438 -374 543 -464 30 -25 91 -77 136 -116
45 -38 124 -106 176 -149 52 -44 99 -86 105 -93 8 -10 10 -137 7 -456 l-5
-442 36 -22 c49 -31 76 -88 76 -161 0 -50 -5 -66 -30 -100 -92 -127 -282 -101
-331 45 -26 78 8 179 73 218 26 15 28 20 28 86 0 79 -4 81 -75 48 -51 -24
-114 -88 -147 -151 -19 -36 -23 -58 -23 -138 0 -113 22 -168 95 -239 69 -67
118 -86 225 -86 75 0 98 4 140 25 65 32 130 98 161 163 26 57 33 160 14 229
-16 55 -69 128 -122 168 l-48 35 0 79 c0 77 0 78 23 72 92 -23 208 -129 261
-238 158 -324 -69 -688 -430 -688 -131 0 -224 35 -317 120 -109 100 -157 209
-157 359 0 137 44 243 140 339 54 54 163 116 223 127 l37 7 0 69 c0 65 -1 69
-23 69 -13 0 -48 -7 -78 -16 -277 -81 -464 -350 -445 -637 10 -156 64 -274
174 -390 107 -111 211 -164 370 -188 l82 -12 0 -69 c0 -52 -4 -70 -15 -74 -26
-11 -175 16 -254 46 -88 32 -135 58 -211 116 -100 75 -191 196 -240 316 l-24
58 -780 2 -781 3 -1 737 c0 406 -2 739 -5 741 -2 2 -38 16 -79 31 -92 33 -156
78 -215 153 -206 263 -93 642 223 750 78 26 198 31 277 9z m-35 -294 c19 -9
47 -36 64 -59 86 -123 1 -294 -148 -295 -127 -1 -224 122 -186 237 15 46 65
104 105 121 42 18 123 16 165 -4z m2437 -1181 c263 -108 442 -351 472 -638 8
-83 8 -83 -69 -83 -70 0 -80 6 -80 49 -1 120 -73 282 -171 386 -75 78 -143
123 -239 158 l-65 23 -3 63 c-2 35 -1 70 2 77 6 16 58 5 153 -35z m-1977
-1612 l0 -39 -55 0 -55 0 0 -159 c0 -104 -4 -161 -11 -163 -5 -2 -28 -2 -49 0
l-40 4 -2 157 -3 156 -50 3 c-56 4 -63 10 -57 52 l4 29 142 3 c77 2 149 1 159
-1 13 -2 17 -13 17 -42z m428 44 c7 -3 12 -22 12 -44 l0 -39 -80 0 -80 0 0
-35 0 -34 68 -3 67 -3 0 -40 0 -40 -67 -3 -68 -3 0 -39 0 -39 83 -3 82 -3 3
-36 3 -36 -68 -6 c-86 -9 -167 -9 -187 -1 -14 5 -16 33 -16 204 0 149 3 200
13 204 15 6 217 5 235 -1z m476 -14 c41 -24 43 -34 17 -68 -17 -22 -21 -23
-49 -12 -50 21 -93 11 -120 -29 -20 -29 -23 -44 -20 -94 4 -51 9 -63 36 -87
36 -32 68 -37 98 -14 28 21 51 18 70 -10 14 -21 14 -28 3 -41 -23 -28 -67 -44
-124 -44 -84 0 -137 35 -170 112 -17 43 -20 144 -4 185 14 37 66 92 104 109
46 20 118 17 159 -7z m566 -188 c-1 -112 -6 -191 -12 -198 -11 -14 -56 -17
-82 -7 -13 5 -16 22 -16 85 l0 79 -65 0 -65 0 0 -79 c0 -84 -4 -91 -55 -91
-42 0 -46 16 -43 216 l3 189 48 3 47 3 0 -75 0 -76 65 0 65 0 0 74 0 75 43 3
c23 2 48 -1 55 -6 10 -7 12 -54 12 -195z m-3082 -818 l2 -203 -50 0 -50 0 0
198 c0 109 3 202 7 206 4 4 25 6 48 4 l40 -3 3 -202z m377 90 c33 -61 63 -114
66 -118 4 -3 4 37 1 89 -2 52 -2 106 2 121 6 24 10 26 49 23 l42 -3 3 -202 2
-203 -52 0 -53 0 -60 115 -60 115 -3 -115 -3 -115 -49 0 -50 0 0 198 c0 109 3
202 7 206 4 4 28 6 53 4 l45 -3 60 -112z m483 105 c5 -7 35 -64 66 -125 32
-62 58 -113 59 -113 1 0 2 55 2 122 l0 123 45 0 45 0 3 -202 2 -203 -53 0 -54
0 -61 118 -61 117 -1 -118 0 -118 -47 3 -48 3 -3 190 c-1 104 0 195 2 202 7
17 90 17 104 1z m692 -6 c19 -9 48 -37 65 -60 27 -40 30 -51 30 -125 0 -71 -4
-88 -27 -129 -67 -114 -238 -118 -310 -7 -70 107 -35 281 65 324 45 20 135 19
177 -3z m358 -59 c12 -43 30 -112 40 -153 18 -69 20 -73 27 -45 5 17 22 84 39
150 l32 120 47 3 c33 2 47 -1 47 -10 1 -7 -25 -100 -56 -205 l-58 -193 -57 0
c-32 0 -60 3 -63 8 -7 13 -109 345 -114 375 -4 26 -3 27 46 27 l50 0 20 -77z
m587 55 c4 -13 31 -100 61 -193 30 -94 54 -176 54 -183 0 -9 -15 -12 -52 -10
l-53 3 -9 43 -9 42 -58 0 -59 0 -11 -45 -11 -45 -49 0 c-33 0 -49 4 -49 13 1
16 113 369 123 385 5 7 30 12 62 12 47 0 54 -3 60 -22z m531 -2 c12 -51 3 -61
-59 -64 l-57 -3 0 -159 0 -160 -50 0 -50 0 0 159 0 160 -52 3 c-50 3 -53 5
-56 31 -7 57 -6 57 162 57 l156 0 6 -24z m430 -1 c59 -34 84 -89 84 -183 0
-81 -10 -115 -48 -156 -66 -70 -191 -77 -261 -13 -83 76 -83 258 1 333 39 36
61 43 122 44 45 0 69 -6 102 -25z m531 1 c71 -36 83 -139 25 -199 l-31 -32 39
-70 c22 -38 40 -73 40 -77 0 -5 -24 -8 -52 -8 l-53 0 -36 68 c-25 46 -43 68
-57 70 -21 3 -22 -1 -22 -67 l0 -71 -50 0 -50 0 0 198 c0 109 3 202 8 206 13
15 205 0 239 -18z m473 6 c41 -20 47 -38 21 -71 -18 -24 -18 -24 -63 -6 -36
13 -50 14 -67 6 -44 -24 -25 -49 61 -81 71 -26 108 -67 108 -118 0 -40 -24
-84 -58 -108 -51 -35 -178 -26 -230 16 l-23 19 22 31 c25 34 33 35 69 15 50
-28 136 -10 115 25 -3 6 -40 26 -81 46 -41 19 -82 46 -90 60 -22 32 -21 94 0
126 36 56 145 76 216 40z"/>
<path d="M2358 3853 l-448 -386 0 -423 c0 -412 1 -424 19 -424 16 0 21 10 26
58 9 84 51 275 81 366 90 276 237 511 458 732 138 137 260 230 404 309 29 15
52 31 52 35 0 9 -127 120 -137 119 -4 0 -209 -174 -455 -386z"/>
<path d="M1920 692 c-18 -19 -30 -42 -31 -59 -4 -116 19 -163 80 -163 57 0 75
26 79 114 4 65 2 75 -19 99 -38 42 -73 45 -109 9z"/>
<path d="M2922 639 c-17 -74 -16 -79 18 -79 34 0 34 3 19 68 -17 67 -24 69
-37 11z"/>
<path d="M3828 710 c-26 -16 -51 -94 -45 -142 14 -101 112 -137 151 -54 51
107 -23 244 -106 196z"/>
<path d="M4350 666 l0 -56 33 0 c42 0 77 25 77 54 0 31 -20 47 -70 53 l-40 6
0 -57z"/>
</g>
</svg>
