<?xml version="1.0" standalone="no"?>
<!DOCTYPE svg PUBLIC "-//W3C//DTD SVG 20010904//EN"
 "http://www.w3.org/TR/2001/REC-SVG-20010904/DTD/svg10.dtd">
<svg version="1.0" xmlns="http://www.w3.org/2000/svg"
 width="444.000000pt" height="391.000000pt" viewBox="0 0 444.000000 391.000000"
 preserveAspectRatio="xMidYMid meet">

<g transform="translate(0.000000,391.000000) scale(0.100000,-0.100000)"
fill="#000000" stroke="none">
<path d="M1161 3735 c-103 -33 -211 -141 -246 -246 -26 -78 -18 -218 17 -290
46 -94 137 -173 236 -204 l52 -17 0 -599 0 -599 23 0 c12 0 295 0 629 0 l606
0 42 -86 c84 -173 254 -303 443 -339 121 -23 117 -25 117 44 l0 59 -57 7
c-231 28 -413 209 -444 440 -31 239 119 474 349 545 93 29 92 29 92 -40 l0
-59 -42 -12 c-189 -50 -313 -241 -279 -431 23 -130 101 -236 215 -289 232
-109 500 30 546 283 28 151 -51 322 -185 399 -72 41 -75 40 -75 -35 0 -55 3
-66 19 -71 11 -3 34 -22 52 -42 123 -140 87 -340 -75 -426 -31 -16 -59 -22
-116 -22 -65 0 -82 4 -128 29 -29 17 -66 48 -83 70 -31 43 -59 121 -59 166 0
50 30 126 66 168 36 42 126 97 138 85 3 -4 6 -30 6 -59 0 -48 -3 -56 -30 -75
-115 -86 -54 -269 91 -269 81 0 149 68 149 148 0 42 -32 104 -64 126 l-26 16
0 363 0 363 -367 314 c-406 349 -479 410 -489 410 -3 0 -23 -15 -44 -32 -20
-18 -60 -53 -89 -77 -30 -25 -59 -50 -65 -56 -6 -6 -108 -93 -226 -195 -118
-101 -263 -226 -323 -278 l-107 -95 2 -426 3 -426 132 -3 c153 -3 138 -16 147
124 29 451 323 886 742 1097 l52 26 37 -32 38 -33 -106 -58 c-124 -68 -193
-119 -296 -219 -220 -214 -358 -510 -378 -814 l-6 -93 60 0 60 0 7 93 c23 326
192 630 466 838 62 48 269 159 293 159 12 -1 77 -55 77 -64 0 -2 -17 -10 -37
-16 -62 -20 -194 -89 -260 -136 -185 -132 -322 -312 -393 -517 -33 -96 -60
-234 -60 -308 l0 -49 60 0 60 0 0 49 c0 65 23 179 54 270 99 286 360 525 654
601 42 11 44 10 85 -26 23 -21 43 -40 45 -44 1 -3 -28 -11 -64 -18 -154 -29
-338 -134 -448 -254 -135 -148 -226 -361 -226 -528 l0 -51 58 3 57 3 6 70 c9
95 24 146 69 240 107 220 317 375 553 409 l47 7 0 -54 0 -53 -65 -13 c-135
-27 -291 -125 -371 -234 -86 -117 -124 -224 -127 -363 -1 -44 -6 -82 -12 -86
-12 -9 -1068 -10 -1090 -2 -13 5 -15 86 -15 605 l0 599 -57 1 c-154 2 -265
112 -266 262 -1 155 109 266 263 267 145 0 249 -96 266 -244 10 -89 -37 -191
-112 -239 -32 -21 -34 -24 -34 -84 0 -37 4 -63 10 -63 6 0 29 9 52 21 63 32
135 111 171 187 29 60 32 76 32 158 -1 85 -3 97 -38 167 -43 86 -98 141 -186
184 -47 23 -71 28 -146 30 -56 2 -106 -3 -134 -12z m1185 -377 c29 -24 53 -46
54 -49 0 -3 -33 -25 -72 -49 -171 -101 -335 -248 -450 -403 -144 -194 -237
-418 -274 -660 -14 -88 -20 -107 -33 -105 -14 3 -16 40 -19 343 l-2 340 77 65
c42 36 100 85 128 110 28 25 75 66 105 92 30 26 136 116 235 202 99 85 184
155 189 155 5 1 33 -18 62 -41z"/>
<path d="M1234 3509 c-42 -12 -91 -69 -100 -115 -9 -48 9 -104 43 -136 100
-93 253 -28 253 107 0 62 -28 108 -84 134 -46 23 -64 24 -112 10z"/>
<path d="M3200 2521 l0 -58 58 -21 c178 -65 298 -221 327 -424 l7 -48 59 0
c69 0 67 -4 44 117 -30 159 -133 313 -272 404 -65 42 -175 89 -210 89 -9 0
-13 -17 -13 -59z"/>
<path d="M2335 1276 c-62 -28 -95 -85 -95 -164 0 -94 62 -162 147 -162 46 0
103 25 103 46 0 24 -29 38 -56 25 -59 -26 -106 2 -119 71 -16 87 43 152 115
127 27 -10 33 -9 45 7 17 23 11 32 -31 50 -41 17 -70 17 -109 0z"/>
<path d="M1472 1253 c3 -25 7 -28 45 -31 l42 -3 3 -132 3 -132 32 -3 32 -3 3
133 3 133 45 5 c25 3 44 8 43 13 -2 4 -3 16 -3 27 0 19 -7 20 -126 20 l-125 0
3 -27z"/>
<path d="M1882 1118 l3 -163 100 0 100 0 3 27 c3 27 3 27 -65 30 l-68 3 -3 38
-3 37 55 0 c55 0 56 0 56 29 0 29 -2 30 -52 33 -52 3 -53 4 -56 36 l-3 32 65
0 66 0 0 30 0 30 -100 0 -100 0 2 -162z"/>
<path d="M2650 1114 l0 -165 33 3 32 3 3 68 3 67 59 0 60 0 0 -71 0 -70 33 3
32 3 3 163 2 162 -35 0 -35 0 0 -60 0 -59 -34 -6 c-18 -4 -44 -5 -57 -3 -22 3
-24 8 -27 66 l-3 62 -34 0 -35 0 0 -166z"/>
<path d="M360 610 c-7 -4 -10 -59 -8 -166 l3 -159 30 0 30 0 3 161 2 162 -24
4 c-14 3 -30 2 -36 -2z"/>
<path d="M1550 609 c-59 -24 -90 -80 -90 -163 0 -98 61 -166 149 -166 71 0
116 35 137 107 14 47 14 65 5 108 -6 28 -18 61 -26 72 -31 44 -117 65 -175 42z
m105 -74 c21 -20 25 -34 25 -85 0 -51 -4 -65 -25 -85 -32 -33 -68 -32 -94 1
-55 70 -22 194 52 194 10 0 29 -11 42 -25z"/>
<path d="M3070 602 c-100 -49 -105 -243 -8 -302 68 -42 169 -15 205 53 24 47
23 153 -2 196 -39 65 -124 89 -195 53z m115 -67 c21 -20 25 -34 25 -85 0 -51
-4 -65 -25 -85 -31 -32 -59 -32 -90 0 -21 20 -25 34 -25 85 0 51 4 65 25 85
13 14 34 25 45 25 12 0 32 -11 45 -25z"/>
<path d="M3898 604 c-34 -18 -48 -43 -48 -87 0 -40 23 -64 98 -101 35 -18 52
-32 52 -45 0 -27 -49 -36 -93 -17 -33 13 -37 13 -52 -4 -21 -23 -13 -38 31
-56 79 -33 169 -2 186 64 14 52 -7 82 -84 120 -69 34 -80 49 -53 72 13 10 24
11 56 1 31 -9 44 -10 55 0 23 19 16 39 -21 55 -44 18 -92 17 -127 -2z"/>
<path d="M600 450 l0 -160 24 -6 c43 -10 48 1 46 105 -1 53 -1 101 -1 106 1 6
27 -39 59 -100 56 -108 58 -110 92 -110 l35 0 3 163 2 162 -36 0 -36 0 4 -105
c1 -58 1 -105 -2 -105 -3 0 -29 47 -58 105 l-53 105 -40 0 -39 0 0 -160z"/>
<path d="M1042 448 l3 -163 30 0 30 0 -3 115 -2 115 56 -110 c31 -60 62 -113
68 -117 6 -4 23 -8 39 -8 l27 0 0 165 0 165 -30 0 -30 0 0 -112 0 -113 -57
113 -57 112 -38 0 -38 0 2 -162z"/>
<path d="M1880 598 c0 -22 82 -292 93 -305 5 -7 25 -13 43 -13 29 0 36 5 48
32 15 33 86 276 86 291 0 4 -15 7 -34 7 l-34 0 -27 -112 c-15 -62 -31 -119
-35 -126 -4 -8 -14 15 -24 55 -51 197 -45 183 -82 183 -21 0 -34 -5 -34 -12z"/>
<path d="M2347 603 c-18 -31 -96 -308 -88 -316 20 -20 56 -3 67 33 11 34 13
35 66 38 l54 3 10 -38 c7 -29 15 -39 32 -41 52 -8 52 0 11 130 -21 68 -44 140
-49 161 -10 36 -12 37 -55 37 -24 0 -46 -3 -48 -7z m61 -104 c17 -74 16 -79
-19 -79 -30 0 -31 1 -25 33 4 17 10 47 13 65 8 46 18 40 31 -19z"/>
<path d="M2612 583 c3 -25 7 -28 45 -31 l42 -3 3 -132 3 -132 35 0 35 0 3 132
3 132 42 3 c37 3 42 6 42 28 l0 25 -128 3 -128 3 3 -28z"/>
<path d="M3452 448 l3 -163 33 -3 c35 -4 37 2 33 81 -3 34 0 37 23 37 20 0 30
-9 47 -42 30 -61 48 -78 81 -78 36 0 35 10 -3 76 l-31 54 26 31 c26 30 35 85
20 124 -12 30 -60 45 -149 45 l-85 0 2 -162z m165 85 c27 -34 -35 -87 -81 -70
-19 7 -22 67 -5 84 15 15 71 6 86 -14z"/>
</g>
</svg>
